# xmcd
#
# Track frame offsets: 
#        150
#        26412
#        44597
#        74157
#        94758
#        116736
#        141077
#        158121
#        180711
#        211775
#        236485
#        266815
#        288404
#        306109
#        324413
#        332788
#
# Disc length: 4734 seconds
#
# Revision: 0
# Processed by: cddbd v1.5.2PL0 Copyright (c) Steve Scherf et al.
# Submitted via: ExactAudioCopy v0.95b3
#
DISCID=f0127c10
DTITLE=Robert Plant  - Nine lives - Fate of Nations [remastered with b
DTITLE=onus tracks]
DYEAR=1900
DGENRE=
TTITLE0=Calling To You
TTITLE1=Down To The Sea
TTITLE2=Come Into My Life
TTITLE3=I Believe
TTITLE4=29 Palms
TTITLE5=Memory Song
TTITLE6=If I Were A Carpenter
TTITLE7=Promised Land
TTITLE8=The Greatest Gift
TTITLE9=Great Spirit
TTITLE10=Network News
TTITLE11=Colours Of A Shade
TTITLE12=Great Spirit (Acoustic Mix)
TTITLE13=Rollercoaster (Demo)
TTITLE14=8.05
TTITLE15=Dark Moon (Acoustic)
EXTD=
EXTT0=
EXTT1=
EXTT2=
EXTT3=
EXTT4=
EXTT5=
EXTT6=
EXTT7=
EXTT8=
EXTT9=
EXTT10=
EXTT11=
EXTT12=
EXTT13=
EXTT14=
EXTT15=
PLAYORDER=
